<svg xmlns="http://www.w3.org/2000/svg" viewBox="0 0 240 240">
<defs><radialGradient id="bg"><stop stop-color="#363a40"/><stop offset=".85" stop-color="#111318"/><stop offset="1" stop-color="#050608"/></radialGradient><linearGradient id="metal" x2="0.8" y2="1"><stop stop-color="#a7adb3"/><stop offset=".35" stop-color="#3f444b"/><stop offset=".58" stop-color="#d2d6d8"/><stop offset="1" stop-color="#1f232a"/></linearGradient><linearGradient id="plate"><stop stop-color="#40454b"/><stop offset=".3" stop-color="#1b1e24"/><stop offset=".65" stop-color="#41454a"/><stop offset="1" stop-color="#111316"/></linearGradient><linearGradient id="red" x2="1" y2="1"><stop stop-color="#fe3755"/><stop offset="1" stop-color="#7b1124"/></linearGradient><filter id="shadow"><feGaussianBlur stdDeviation="8"/></filter></defs>
<rect width="240" height="240" fill="url(#bg)"/><path d="M0 85h240M0 123h240M0 171h240" stroke="#666" opacity=".07"/><path d="M42 0v118M205 0v95" stroke="#d23b52" stroke-width="5" opacity=".45"/><ellipse cx="125" cy="200" rx="95" ry="17" fill="#000" opacity=".7" filter="url(#shadow)"/>
<g transform="translate(22 133) rotate(-18 100 38)"><rect x="63" y="26" width="90" height="23" rx="8" fill="url(#metal)" stroke="#090a0c" stroke-width="2"/><path d="M76 27v21m8-21v21m8-21v21m8-21v21m8-21v21m8-21v21m8-21v21" stroke="#101317" stroke-width="2" opacity=".5"/><rect x="29" y="5" width="42" height="65" rx="7" fill="url(#plate)" stroke="#747780" stroke-opacity=".3" stroke-width="2"/><rect x="145" y="5" width="42" height="65" rx="7" fill="url(#plate)" stroke="#747780" stroke-opacity=".3" stroke-width="2"/><path d="M37 17h23v40H37m116-40h23v40h-23" stroke="#989ba0" opacity=".26" fill="none"/></g>
<path d="M14 178q32-15 52 7l-8 43H8Z" fill="#22252a" stroke="#50535a" opacity=".9"/><rect x="190" y="66" width="31" height="94" rx="9" fill="#16191d" stroke="#444b51"/><rect x="197" y="52" width="17" height="18" rx="4" fill="url(#metal)"/><rect x="193" y="75" width="26" height="10" fill="#33383f"/><path d="M197 97v49" stroke="#71767c" opacity=".25"/><rect x="0" y="218" width="240" height="22" fill="url(#red)"/></svg>